# xmcd CD database file
#
# Track frame offsets:
#	150
#	28793
#	58051
#	85422
#	114600
#	138568
#	159692
#	178801
#	198627
#	227736
#	250486
#	282878
#
# Disc length: 4018 seconds
#
# Revision: 0
# Processed by: cddbd v1.5.1PL0 Copyright (c) Steve Scherf et al.
# Submitted via: CDex 1.51
#
DISCID=b60fb00c
DTITLE=Alan Matheson Nonet - Intrada
DYEAR=2004
DGENRE=Jazz
TTITLE0=Open Letter To Mingus
TTITLE1=Jackson Square
TTITLE2=Ballad
TTITLE3=Sisu
TTITLE4=Pas-De-Deux
TTITLE5=Intrada
TTITLE6=Blues
TTITLE7=Allegro
TTITLE8=White Nights
TTITLE9=Ionashpere
TTITLE10=The Question
TTITLE11=From Monday On
EXTD=YEAR: 2004
EXTT0=
EXTT1=
EXTT2=
EXTT3=
EXTT4=
EXTT5=
EXTT6=
EXTT7=
EXTT8=
EXTT9=
EXTT10=
EXTT11=
PLAYORDER=
